<mxfile host="app.diagrams.net" agent="Mozilla/5.0 (Windows NT 10.0; Win64; x64) AppleWebKit/537.36 (KHTML, like Gecko) Chrome/134.0.0.0 Safari/537.36" version="26.0.5">
  <diagram name="Page-1" id="QjkCI8Lsm1HmaeUqQrsY">
    <mxGraphModel>
      <root>
        <mxCell id="0" />
        <mxCell id="1" parent="0" />
        <mxCell id="2" value="Start" style="ellipse;aspect=fixed;strokeWidth=2;whiteSpace=wrap;" vertex="1" parent="1">
          <mxGeometry x="66" y="8" width="50" height="50" as="geometry" />
        </mxCell>
        <mxCell id="3" value="Prepare data" style="rounded=1;arcSize=40;strokeWidth=2" vertex="1" parent="1">
          <mxGeometry x="30" y="131" width="122" height="54" as="geometry" />
        </mxCell>
        <mxCell id="4" value="Process data" style="rounded=1;arcSize=40;strokeWidth=2" vertex="1" parent="1">
          <mxGeometry x="31" y="258" width="119" height="54" as="geometry" />
        </mxCell>
        <mxCell id="5" value="Visualize data" style="rounded=1;arcSize=40;strokeWidth=2" vertex="1" parent="1">
          <mxGeometry x="26" y="385" width="130" height="54" as="geometry" />
        </mxCell>
        <mxCell id="6" value="Review and iterate" style="rounded=1;arcSize=40;strokeWidth=2" vertex="1" parent="1">
          <mxGeometry x="8" y="512" width="165" height="54" as="geometry" />
        </mxCell>
        <mxCell id="7" value="End" style="rounded=1;arcSize=40;strokeWidth=2" vertex="1" parent="1">
          <mxGeometry x="63" y="639" width="56" height="54" as="geometry" />
        </mxCell>
        <mxCell id="8" value="Step 1" style="curved=1;startArrow=none;endArrow=block;exitX=0.49;exitY=1;entryX=0.5;entryY=0;" edge="1" parent="1" source="2" target="3">
          <mxGeometry relative="1" as="geometry">
            <Array as="points" />
          </mxGeometry>
        </mxCell>
        <mxCell id="9" value="Step 2" style="curved=1;startArrow=none;endArrow=block;exitX=0.5;exitY=1;entryX=0.5;entryY=0;" edge="1" parent="1" source="3" target="4">
          <mxGeometry relative="1" as="geometry">
            <Array as="points" />
          </mxGeometry>
        </mxCell>
        <mxCell id="10" value="Step 3" style="curved=1;startArrow=none;endArrow=block;exitX=0.5;exitY=1;entryX=0.5;entryY=0;" edge="1" parent="1" source="4" target="5">
          <mxGeometry relative="1" as="geometry">
            <Array as="points" />
          </mxGeometry>
        </mxCell>
        <mxCell id="11" value="Step 4" style="curved=1;startArrow=none;endArrow=block;exitX=0.5;exitY=1;entryX=0.5;entryY=0;" edge="1" parent="1" source="5" target="6">
          <mxGeometry relative="1" as="geometry">
            <Array as="points" />
          </mxGeometry>
        </mxCell>
        <mxCell id="12" value="Step 5" style="curved=1;startArrow=none;endArrow=block;exitX=0.5;exitY=1;entryX=0.5;entryY=0;" edge="1" parent="1" source="6" target="7">
          <mxGeometry relative="1" as="geometry">
            <Array as="points" />
          </mxGeometry>
        </mxCell>
      </root>
    </mxGraphModel>
  </diagram>
</mxfile>
